<mxfile host="Electron" agent="Mozilla/5.0 (X11; Linux x86_64) AppleWebKit/537.36 (KHTML, like Gecko) draw.io/28.2.5 Chrome/138.0.7204.251 Electron/37.6.1 Safari/537.36" version="28.2.5">
  <diagram name="第 1 页" id="A2wYnKDMZFF023bxGnZ8">
    <mxGraphModel dx="2194" dy="1212" grid="1" gridSize="10" guides="1" tooltips="1" connect="1" arrows="1" fold="1" page="1" pageScale="1" pageWidth="827" pageHeight="1169" background="none" math="0" shadow="0">
      <root>
        <mxCell id="0" />
        <mxCell id="1" parent="0" />
        <mxCell id="uV96uOEizypCZ8WnYTJa-16" value="" style="rounded=0;whiteSpace=wrap;html=1;strokeColor=#000000;" parent="1" vertex="1">
          <mxGeometry x="80" y="150" width="2760" height="1340" as="geometry" />
        </mxCell>
        <mxCell id="-QrxRBGIXTvyxB3OS5xk-1" value="DeferredImportSelectorHandler" style="shape=umlLifeline;whiteSpace=wrap;html=1;container=1;dropTarget=0;collapsible=0;recursiveResize=0;outlineConnect=0;portConstraint=eastwest;newEdgeStyle={&quot;curved&quot;:0,&quot;rounded&quot;:0};fontSize=20;fontStyle=0;points=[[0,0,0,0,5],[0,1,0,0,-5],[1,0,0,0,5],[1,1,0,0,-5]];perimeter=rectanglePerimeter;targetShapes=umlLifeline;participant=label;fillColor=#ffcc99;strokeColor=#36393d;" parent="1" vertex="1">
          <mxGeometry x="270" y="208" width="360" height="1182" as="geometry" />
        </mxCell>
        <mxCell id="-QrxRBGIXTvyxB3OS5xk-2" value="" style="html=1;points=[[0,0,0,0,5],[0,1,0,0,-5],[1,0,0,0,5],[1,1,0,0,-5]];perimeter=orthogonalPerimeter;outlineConnect=0;targetShapes=umlLifeline;portConstraint=eastwest;newEdgeStyle={&quot;curved&quot;:0,&quot;rounded&quot;:0};fontSize=20;" parent="-QrxRBGIXTvyxB3OS5xk-1" vertex="1">
          <mxGeometry x="175" y="130" width="10" height="990" as="geometry" />
        </mxCell>
        <mxCell id="3APO915a-bzhhaDq2Xia-4" value="processGroupImports()" style="html=1;verticalAlign=bottom;startArrow=oval;endArrow=block;startSize=8;curved=0;rounded=0;entryX=0;entryY=0;entryDx=0;entryDy=5;fontSize=20;fontStyle=1;fontColor=#FF0000;" parent="-QrxRBGIXTvyxB3OS5xk-1" target="3APO915a-bzhhaDq2Xia-3" edge="1">
          <mxGeometry relative="1" as="geometry">
            <mxPoint x="190" y="177" as="sourcePoint" />
          </mxGeometry>
        </mxCell>
        <mxCell id="-QrxRBGIXTvyxB3OS5xk-56" value="process()" style="html=1;verticalAlign=bottom;endArrow=block;curved=0;rounded=0;fontSize=20;fontStyle=0;fontColor=#000000;" parent="1" target="-QrxRBGIXTvyxB3OS5xk-2" edge="1">
          <mxGeometry x="-0.0021" relative="1" as="geometry">
            <mxPoint x="130" y="360" as="sourcePoint" />
            <mxPoint x="325" y="365" as="targetPoint" />
            <mxPoint as="offset" />
          </mxGeometry>
        </mxCell>
        <mxCell id="95j3l6Zmy1izTpRHIwG8-5" style="edgeStyle=orthogonalEdgeStyle;rounded=0;orthogonalLoop=1;jettySize=auto;html=1;exitX=0.5;exitY=1;exitDx=0;exitDy=0;" parent="1" edge="1">
          <mxGeometry relative="1" as="geometry">
            <mxPoint x="652" y="420.0000000000002" as="sourcePoint" />
            <mxPoint x="652" y="420.0000000000002" as="targetPoint" />
          </mxGeometry>
        </mxCell>
        <mxCell id="Oij3SpfJl_yuD8244eqy-1" value="dubbo&lt;div&gt;&lt;br&gt;&lt;/div&gt;" style="shape=module;align=left;spacingLeft=20;align=center;verticalAlign=top;whiteSpace=wrap;html=1;fontSize=20;fillColor=#fff2cc;strokeColor=#d6b656;" parent="1" vertex="1">
          <mxGeometry x="1100" y="1410" width="160" height="50" as="geometry" />
        </mxCell>
        <mxCell id="Oij3SpfJl_yuD8244eqy-2" value="spring&lt;div&gt;&lt;br&gt;&lt;/div&gt;" style="shape=module;align=left;spacingLeft=20;align=center;verticalAlign=top;whiteSpace=wrap;html=1;fontSize=20;fillColor=#ffcc99;strokeColor=#36393d;" parent="1" vertex="1">
          <mxGeometry x="667" y="1410" width="160" height="50" as="geometry" />
        </mxCell>
        <mxCell id="Oij3SpfJl_yuD8244eqy-3" value="springboot&lt;div&gt;&lt;br&gt;&lt;/div&gt;" style="shape=module;align=left;spacingLeft=20;align=center;verticalAlign=top;whiteSpace=wrap;html=1;fontSize=20;fillColor=#ffe6cc;strokeColor=#d79b00;" parent="1" vertex="1">
          <mxGeometry x="890" y="1410" width="160" height="50" as="geometry" />
        </mxCell>
        <mxCell id="3APO915a-bzhhaDq2Xia-1" value="DeferredImportSelectorGroupingHandler" style="shape=umlLifeline;whiteSpace=wrap;html=1;container=1;dropTarget=0;collapsible=0;recursiveResize=0;outlineConnect=0;portConstraint=eastwest;newEdgeStyle={&quot;curved&quot;:0,&quot;rounded&quot;:0};fontSize=20;fontStyle=0;points=[[0,0,0,0,5],[0,1,0,0,-5],[1,0,0,0,5],[1,1,0,0,-5]];perimeter=rectanglePerimeter;targetShapes=umlLifeline;participant=label;fillColor=#ffcc99;strokeColor=#36393d;" parent="1" vertex="1">
          <mxGeometry x="760" y="208" width="500" height="1190" as="geometry" />
        </mxCell>
        <mxCell id="3APO915a-bzhhaDq2Xia-3" value="" style="html=1;points=[[0,0,0,0,5],[0,1,0,0,-5],[1,0,0,0,5],[1,1,0,0,-5]];perimeter=orthogonalPerimeter;outlineConnect=0;targetShapes=umlLifeline;portConstraint=eastwest;newEdgeStyle={&quot;curved&quot;:0,&quot;rounded&quot;:0};" parent="3APO915a-bzhhaDq2Xia-1" vertex="1">
          <mxGeometry x="245" y="170" width="10" height="660" as="geometry" />
        </mxCell>
        <mxCell id="3APO915a-bzhhaDq2Xia-13" value="getImports()" style="html=1;verticalAlign=bottom;endArrow=block;curved=0;rounded=0;entryX=0;entryY=0;entryDx=0;entryDy=5;fontSize=20;" parent="3APO915a-bzhhaDq2Xia-1" target="3APO915a-bzhhaDq2Xia-12" edge="1">
          <mxGeometry relative="1" as="geometry">
            <mxPoint x="255" y="187" as="sourcePoint" />
          </mxGeometry>
        </mxCell>
        <mxCell id="3APO915a-bzhhaDq2Xia-14" value="返回标注@AutoConfiguration注解的类" style="html=1;verticalAlign=bottom;endArrow=open;dashed=1;endSize=8;curved=0;rounded=0;exitX=0;exitY=1;exitDx=0;exitDy=-5;fontSize=20;" parent="3APO915a-bzhhaDq2Xia-1" source="3APO915a-bzhhaDq2Xia-12" edge="1">
          <mxGeometry x="0.001" relative="1" as="geometry">
            <mxPoint x="255" y="257" as="targetPoint" />
            <mxPoint as="offset" />
          </mxGeometry>
        </mxCell>
        <mxCell id="3APO915a-bzhhaDq2Xia-16" value="processImports()" style="html=1;verticalAlign=bottom;startArrow=oval;endArrow=block;startSize=8;curved=0;rounded=0;fontSize=20;" parent="3APO915a-bzhhaDq2Xia-1" target="3APO915a-bzhhaDq2Xia-15" edge="1">
          <mxGeometry relative="1" as="geometry">
            <mxPoint x="255" y="322" as="sourcePoint" />
            <mxPoint x="1309" y="348.9999999999998" as="targetPoint" />
          </mxGeometry>
        </mxCell>
        <mxCell id="3APO915a-bzhhaDq2Xia-5" value="Spring条件化配置和自动配置的基石" style="text;html=1;align=center;verticalAlign=middle;whiteSpace=wrap;rounded=0;fontSize=20;fontColor=#FF0000;fontStyle=1" parent="1" vertex="1">
          <mxGeometry x="560" y="390" width="360" height="30" as="geometry" />
        </mxCell>
        <mxCell id="3APO915a-bzhhaDq2Xia-6" value="DeferredImportSelectorGrouping" style="shape=umlLifeline;whiteSpace=wrap;html=1;container=1;dropTarget=0;collapsible=0;recursiveResize=0;outlineConnect=0;portConstraint=eastwest;newEdgeStyle={&quot;curved&quot;:0,&quot;rounded&quot;:0};fontSize=20;fontStyle=0;points=[[0,0,0,0,5],[0,1,0,0,-5],[1,0,0,0,5],[1,1,0,0,-5]];perimeter=rectanglePerimeter;targetShapes=umlLifeline;participant=label;fillColor=#ffcc99;strokeColor=#36393d;" parent="1" vertex="1">
          <mxGeometry x="1420" y="208" width="380" height="1188" as="geometry" />
        </mxCell>
        <mxCell id="3APO915a-bzhhaDq2Xia-12" value="" style="html=1;points=[[0,0,0,0,5],[0,1,0,0,-5],[1,0,0,0,5],[1,1,0,0,-5]];perimeter=orthogonalPerimeter;outlineConnect=0;targetShapes=umlLifeline;portConstraint=eastwest;newEdgeStyle={&quot;curved&quot;:0,&quot;rounded&quot;:0};" parent="3APO915a-bzhhaDq2Xia-6" vertex="1">
          <mxGeometry x="185" y="180" width="10" height="80" as="geometry" />
        </mxCell>
        <mxCell id="3APO915a-bzhhaDq2Xia-10" value="ConfigurationClassParser" style="shape=umlLifeline;whiteSpace=wrap;html=1;container=1;dropTarget=0;collapsible=0;recursiveResize=0;outlineConnect=0;portConstraint=eastwest;newEdgeStyle={&quot;curved&quot;:0,&quot;rounded&quot;:0};fontSize=20;fontStyle=0;points=[[0,0,0,0,5],[0,1,0,0,-5],[1,0,0,0,5],[1,1,0,0,-5]];perimeter=rectanglePerimeter;targetShapes=umlLifeline;participant=label;fillColor=#ffcc99;strokeColor=#36393d;" parent="1" vertex="1">
          <mxGeometry x="1890" y="208" width="380" height="1188" as="geometry" />
        </mxCell>
        <mxCell id="3APO915a-bzhhaDq2Xia-15" value="" style="html=1;points=[[0,0,0,0,5],[0,1,0,0,-5],[1,0,0,0,5],[1,1,0,0,-5]];perimeter=orthogonalPerimeter;outlineConnect=0;targetShapes=umlLifeline;portConstraint=eastwest;newEdgeStyle={&quot;curved&quot;:0,&quot;rounded&quot;:0};" parent="3APO915a-bzhhaDq2Xia-10" vertex="1">
          <mxGeometry x="185" y="309" width="10" height="441" as="geometry" />
        </mxCell>
        <mxCell id="3APO915a-bzhhaDq2Xia-17" value="" style="html=1;points=[[0,0,0,0,5],[0,1,0,0,-5],[1,0,0,0,5],[1,1,0,0,-5]];perimeter=orthogonalPerimeter;outlineConnect=0;targetShapes=umlLifeline;portConstraint=eastwest;newEdgeStyle={&quot;curved&quot;:0,&quot;rounded&quot;:0};" parent="3APO915a-bzhhaDq2Xia-10" vertex="1">
          <mxGeometry x="190" y="367" width="10" height="343" as="geometry" />
        </mxCell>
        <mxCell id="3APO915a-bzhhaDq2Xia-18" value="processConfigurationClass()" style="html=1;align=left;spacingLeft=2;endArrow=block;rounded=0;edgeStyle=orthogonalEdgeStyle;curved=0;rounded=0;fontSize=20;" parent="3APO915a-bzhhaDq2Xia-10" target="3APO915a-bzhhaDq2Xia-17" edge="1">
          <mxGeometry relative="1" as="geometry">
            <mxPoint x="195" y="347" as="sourcePoint" />
            <Array as="points">
              <mxPoint x="225" y="377" />
            </Array>
          </mxGeometry>
        </mxCell>
        <mxCell id="3APO915a-bzhhaDq2Xia-21" value="" style="html=1;points=[[0,0,0,0,5],[0,1,0,0,-5],[1,0,0,0,5],[1,1,0,0,-5]];perimeter=orthogonalPerimeter;outlineConnect=0;targetShapes=umlLifeline;portConstraint=eastwest;newEdgeStyle={&quot;curved&quot;:0,&quot;rounded&quot;:0};" parent="3APO915a-bzhhaDq2Xia-10" vertex="1">
          <mxGeometry x="195" y="522" width="10" height="120" as="geometry" />
        </mxCell>
        <mxCell id="3APO915a-bzhhaDq2Xia-22" value="doProcessConfigurationClass()" style="html=1;align=left;spacingLeft=2;endArrow=block;rounded=0;edgeStyle=orthogonalEdgeStyle;curved=0;rounded=0;fontSize=20;" parent="3APO915a-bzhhaDq2Xia-10" edge="1">
          <mxGeometry relative="1" as="geometry">
            <mxPoint x="200" y="502" as="sourcePoint" />
            <Array as="points">
              <mxPoint x="230" y="532" />
            </Array>
            <mxPoint x="205" y="532.0526315789473" as="targetPoint" />
          </mxGeometry>
        </mxCell>
        <mxCell id="3APO915a-bzhhaDq2Xia-23" value="" style="html=1;points=[[0,0,0,0,5],[0,1,0,0,-5],[1,0,0,0,5],[1,1,0,0,-5]];perimeter=orthogonalPerimeter;outlineConnect=0;targetShapes=umlLifeline;portConstraint=eastwest;newEdgeStyle={&quot;curved&quot;:0,&quot;rounded&quot;:0};" parent="3APO915a-bzhhaDq2Xia-10" vertex="1">
          <mxGeometry x="200" y="584" width="10" height="40" as="geometry" />
        </mxCell>
        <mxCell id="3APO915a-bzhhaDq2Xia-24" value="&lt;div&gt;&lt;span style=&quot;font-size: 20px; text-align: center;&quot;&gt;...&lt;/span&gt;&lt;/div&gt;&lt;span style=&quot;font-size: 20px; text-align: center;&quot;&gt;processImports()&lt;/span&gt;&lt;div&gt;&lt;span style=&quot;font-size: 20px; text-align: center;&quot;&gt;...&lt;/span&gt;&lt;/div&gt;" style="html=1;align=left;spacingLeft=2;endArrow=block;rounded=0;edgeStyle=orthogonalEdgeStyle;curved=0;rounded=0;" parent="3APO915a-bzhhaDq2Xia-10" target="3APO915a-bzhhaDq2Xia-23" edge="1">
          <mxGeometry relative="1" as="geometry">
            <mxPoint x="205" y="563" as="sourcePoint" />
            <Array as="points">
              <mxPoint x="235" y="593" />
            </Array>
          </mxGeometry>
        </mxCell>
        <mxCell id="w5rZ9cp0LSngsfDS2Ns_-13" value="shouldSkip()" style="html=1;verticalAlign=bottom;startArrow=oval;endArrow=block;startSize=8;curved=0;rounded=0;entryX=0;entryY=0;entryDx=0;entryDy=5;fontSize=20;" edge="1" target="w5rZ9cp0LSngsfDS2Ns_-12" parent="3APO915a-bzhhaDq2Xia-10">
          <mxGeometry relative="1" as="geometry">
            <mxPoint x="200" y="397" as="sourcePoint" />
          </mxGeometry>
        </mxCell>
        <mxCell id="w5rZ9cp0LSngsfDS2Ns_-4" value="ConditionEvaluator" style="shape=umlLifeline;whiteSpace=wrap;html=1;container=1;dropTarget=0;collapsible=0;recursiveResize=0;outlineConnect=0;portConstraint=eastwest;newEdgeStyle={&quot;curved&quot;:0,&quot;rounded&quot;:0};fontSize=20;fontStyle=0;points=[[0,0,0,0,5],[0,1,0,0,-5],[1,0,0,0,5],[1,1,0,0,-5]];perimeter=rectanglePerimeter;targetShapes=umlLifeline;participant=label;fillColor=#ffcc99;strokeColor=#36393d;" vertex="1" parent="1">
          <mxGeometry x="2390" y="208" width="380" height="1188" as="geometry" />
        </mxCell>
        <mxCell id="w5rZ9cp0LSngsfDS2Ns_-12" value="" style="html=1;points=[[0,0,0,0,5],[0,1,0,0,-5],[1,0,0,0,5],[1,1,0,0,-5]];perimeter=orthogonalPerimeter;outlineConnect=0;targetShapes=umlLifeline;portConstraint=eastwest;newEdgeStyle={&quot;curved&quot;:0,&quot;rounded&quot;:0};" vertex="1" parent="w5rZ9cp0LSngsfDS2Ns_-4">
          <mxGeometry x="185" y="392" width="10" height="80" as="geometry" />
        </mxCell>
        <mxCell id="w5rZ9cp0LSngsfDS2Ns_-14" value="Spring条件化配置和自动配置的基石" style="text;html=1;align=center;verticalAlign=middle;whiteSpace=wrap;rounded=0;fontSize=20;fontColor=#FF0000;fontStyle=1" vertex="1" parent="1">
          <mxGeometry x="2150" y="610" width="360" height="30" as="geometry" />
        </mxCell>
      </root>
    </mxGraphModel>
  </diagram>
</mxfile>
